Coordinates
version=1
nRows=5
nColumns=42
inDegrees=yes

Units are S.I. units (second, meters, Newtons, ...)
If the header above contains a line with 'inDegrees', this indicates whether rotational values are in degrees (yes) or radians (no).

endheader
time	pelvis_tilt	pelvis_list	pelvis_rotation	pelvis_tx	pelvis_ty	pelvis_tz	hip_flexion_r	hip_adduction_r	hip_rotation_r	knee_angle_r	knee_adduction_r	knee_angle_r_beta	ankle_angle_r	subtalar_angle_r	mtp_angle_r	hip_flexion_l	hip_adduction_l	hip_rotation_l	knee_angle_l	knee_adduction_l	knee_angle_l_beta	ankle_angle_l	subtalar_angle_l	mtp_angle_l	lumbar_extension	lumbar_bending	lumbar_rotation	arm_flex_r	arm_add_r	arm_rot_r	elbow_flex_r	pro_sup_r	wrist_flex_r	wrist_dev_r	arm_flex_l	arm_add_l	arm_rot_l	elbow_flex_l	pro_sup_l	wrist_flex_l	wrist_dev_l
      1.27000000	      1.34337854	      6.42650820	      6.09787388	     -1.04250371	      0.98801447	      0.31946082	     14.22533257	     -7.08383447	    -18.53999180	     11.19329671	      0.11100686	      0.19535988	     -4.47768231	      3.16391852	     -7.86866406	    -16.82319316	      3.48056410	      0.18075986	     11.19651644	      0.72763364	      0.19541608	      7.71086649	      9.27626405	     -7.86866406	    -17.02469630	     -8.43524028	     -8.83936257	    -14.01237719	    -10.98205906	     19.02708372	     37.06272857	     90.00000001	      0.00000000	      0.00000000	     14.36006416	    -20.48206101	     11.85222069	     48.01096771	     90.00000001	      0.00000000	      0.00000000
      1.28000000	      1.34544308	      6.47668256	      6.15465898	     -1.03507985	      0.98974185	      0.32130911	     13.45935351	     -6.94808725	    -18.70999853	     10.69065122	      0.17635885	      0.18658706	     -4.16354513	      3.49399424	     -7.86421368	    -16.24682639	      3.09150839	      0.15873859	     13.01228646	      1.19543061	      0.22710724	      6.67469580	      8.55484177	     -7.86421368	    -17.13818183	     -8.50954268	     -8.87243189	    -13.44354788	    -10.84689787	     18.89584186	     36.89552938	     90.00000001	      0.00000000	      0.00000000	     13.86655678	    -20.60173529	     12.21638658	     47.34605783	     90.00000001	      0.00000000	      0.00000000
      1.29000000	      1.39333197	      6.43785064	      6.24016951	     -1.02763837	      0.99150403	      0.32317904	     12.58644894	     -6.68528223	    -19.02081413	     10.04287044	      0.19893545	      0.17528116	     -3.98673091	      4.02555861	     -7.85678938	    -15.59661935	      2.56833102	      0.12126167	     15.03850054	      1.69488553	      0.26247135	      5.69699205	      7.58856130	     -7.85678938	    -17.26190888	     -8.48124848	     -8.87229145	    -12.84364463	    -10.69703056	     18.71062348	     36.71133621	     90.00000001	      0.00000000	      0.00000000	     13.35941426	    -20.75615194	     12.70556614	     46.73107561	     90.00000001	      0.00000000	      0.00000000
      1.30000000	      1.46617879	      6.54388636	      6.32948592	     -1.02030297	      0.99326137	      0.32494010	     11.68865109	     -6.62539336	    -19.27076191	      9.47327146	      0.30526134	      0.16533978	     -3.64801581	      4.47686402	     -7.84981283	    -14.88499596	      2.17329054	      0.20583046	     17.20199308	      2.24429081	      0.30023142	      4.51322450	      6.86261477	     -7.84981283	    -17.44140521	     -8.60142089	     -8.91642938	    -12.24916827	    -10.59469608	     18.61645679	     36.66385647	     90.00000001	      0.00000000	      0.00000000	     12.80679938	    -20.91693289	     13.01331015	     46.20151498	     90.00000001	      0.00000000	      0.00000000
      1.31000000	      1.56662242	      6.71291930	      6.41191309	     -1.01306452	      0.99496885	      0.32664187	     10.76579833	     -6.67003196	    -19.45634836	      8.94139728	      0.49380506	      0.15605682	     -3.25603164	      4.86491502	     -7.84456294	    -14.11167630	      1.84343590	      0.34077056	     19.50104156	      2.79317349	      0.34035738	      3.27124052	      6.24435365	     -7.84456294	    -17.64899468	     -8.78393432	     -8.97757267	    -11.62227503	    -10.52959714	     18.58006584	     36.68664902	     90.00000001	      0.00000000	      0.00000000	     12.22154226	    -21.08820646	     13.20335064	     45.72786315	     90.00000001	      0.00000000	      0.00000000
